. 
  
http://www.torrenting.com/        :     Greatest Movie Tracker on The Net!!!
 
http://www.Torrenting.com          :     Once & For all ;)


               www . Torrenting . Com 

(((((((((((((= Enjoy No RAR releases =))))))))))))))))))))


...................................NFO:....................................

.[IMG]http://img37.imageshack.us/img37/8818/badteacher.jpg[/IMG]


[color=blue][size=5][b]Bad.Teacher.2011.UNRATED.BDRip.XVID.AC3.HQ.Hive-CM8[/b][/size][/color]


[b]Thx Hive

CM8 Doing It Right The First Time :D


Source: Bluray

Video: 720x384 @bitrate 1800 2pass
Audio: English DTS to AC3 5.1 @448
Sample: yes, included[/b]


[url]http://www.imdb.com/title/tt1284575/[/url]


General
Complete name                    : Bad.Teacher.2011.UNRATED.BDRip.XVID.AC3.HQ.Hive-CM8.avi
Format                           : AVI
Format/Info                      : Audio Video Interleave
File size                        : 1.54 GiB
Duration                         : 1h 37mn
Overall bit rate                 : 2 257 Kbps
Writing application              : Nandub v1.0rc2
Writing library                  : Nandub build 1853/release

Video
ID                               : 0
Format                           : MPEG-4 Visual
Format profile                   : Advanced Simple@L5
Format settings, BVOP            : 1
Format settings, QPel            : Yes
Format settings, GMC             : No warppoints
Format settings, Matrix          : Default (H.263)
Muxing mode                      : Packed bitstream
Codec ID                         : XVID
Codec ID/Hint                    : XviD
Duration                         : 1h 37mn
Bit rate                         : 1 800 Kbps
Width                            : 720 pixels
Height                           : 384 pixels
Display aspect ratio             : 1.850
Frame rate                       : 23.976 fps
Color space                      : YUV
Chroma subsampling               : 4:2:0
Bit depth                        : 8 bits
Scan type                        : Progressive
Compression mode                 : Lossy
Bits/(Pixel*Frame)               : 0.271
Stream size                      : 1.23 GiB (80%)
Writing library                  : XviD 1.2.1 (UTC 2008-12-04)

Audio
ID                               : 1
Format                           : AC-3
Format/Info                      : Audio Coding 3
Mode extension                   : CM (complete main)
Codec ID                         : 2000
Duration                         : 1h 37mn
Bit rate mode                    : Constant
Bit rate                         : 448 Kbps
Channel(s)                       : 6 channels
Channel positions                : Front: L C R, Side: L R, LFE
Sampling rate                    : 48.0 KHz
Bit depth                        : 16 bits
Compression mode                 : Lossy
Stream size                      : 313 MiB (20%)
Alignment                        : Split accross interleaves
Interleave, duration             : 42 ms (1.00 video frame)
Interleave, preload duration     : 500 ms


Plot:
A comedy centered around a foul-mouthed, junior high teacher who, after being
dumped by her sugar daddy, begins to woo a colleague -- a move that pits her
against a well-loved teacher.


Cast:
Cameron Diaz       ...   Elizabeth Halsey
Jason Segel        ...   Russell Gettis
Justin Timberlake  ...   Scott Delacorte
Lucy Punch         ...   Amy Squirrel


[img]http://img35.imageshack.us/img35/537/52146312.png[/img]
[img]http://img88.imageshack.us/img88/3251/babar.png[/img]
[img]http://img819.imageshack.us/img819/1363/bababap.png[/img]
[img]http://img685.imageshack.us/img685/9084/babababa.png[/img]
[img]http://img849.imageshack.us/img849/6408/bababababa.png[/img]
[img]http://img64.imageshack.us/img64/9254/babababababa.png[/img]
[img]http://img545.imageshack.us/img545/6585/bababababababa.png[/img]



Greetz

ViSiON,SiC,SANTi,3LT0N,YanKeeS,MAGNET,THC,T0XiC,LKRG,FANTASIA-PLAY,FANTASIA-M,FLAWL3SS,
D2U,WBZ,BHRG,NOVA,Vik,Rapeseed,SAFC,goldadvance,MEMORY100,KaN1vE,Unevano,Pinnz,Wayne
Mr Hive,cedrict wink,and all P2P groups
Great Work Guys :D

LOOKING FOR ANYTHING YOU WANT TO LOOK AND SOUND BETTER

CM8@hushmail.com